<mxfile host="app.diagrams.net" modified="2023-03-29T14:50:43.040Z" agent="Mozilla/5.0 (X11; Linux x86_64) AppleWebKit/537.36 (KHTML, like Gecko) Chrome/109.0.0.0 Safari/537.36" etag="BM2sATj9IZaRiTZl2rHj" version="21.1.1" type="github">
  <diagram name="Page-1" id="c5Tnqkw9bLcUS8IeZ6L9">
    <mxGraphModel dx="2191" dy="807" grid="1" gridSize="10" guides="1" tooltips="1" connect="1" arrows="1" fold="1" page="1" pageScale="1" pageWidth="827" pageHeight="1169" math="0" shadow="0">
      <root>
        <mxCell id="0" />
        <mxCell id="1" parent="0" />
        <mxCell id="H3EZGzHOY8zEHbJkH5yz-5" style="edgeStyle=orthogonalEdgeStyle;rounded=0;orthogonalLoop=1;jettySize=auto;html=1;exitX=0.5;exitY=1;exitDx=0;exitDy=0;" edge="1" parent="1" source="H3EZGzHOY8zEHbJkH5yz-2">
          <mxGeometry relative="1" as="geometry">
            <mxPoint x="405" y="310" as="targetPoint" />
          </mxGeometry>
        </mxCell>
        <mxCell id="H3EZGzHOY8zEHbJkH5yz-2" value="&lt;font style=&quot;font-size: 27px;&quot;&gt;O&lt;/font&gt;&lt;font style=&quot;font-size: 27px;&quot;&gt;&lt;font style=&quot;font-size: 27px;&quot;&gt;pen CometLabs Website&lt;br&gt;&lt;/font&gt;&lt;br&gt;&lt;/font&gt;" style="rounded=1;whiteSpace=wrap;html=1;absoluteArcSize=1;arcSize=14;strokeWidth=2;" vertex="1" parent="1">
          <mxGeometry x="270" y="80" width="270" height="140" as="geometry" />
        </mxCell>
        <mxCell id="H3EZGzHOY8zEHbJkH5yz-3" value="Visit https://cometlabs.in/&amp;nbsp;" style="text;html=1;align=center;verticalAlign=middle;resizable=0;points=[];autosize=1;strokeColor=none;fillColor=none;" vertex="1" parent="1">
          <mxGeometry x="325" y="160" width="160" height="30" as="geometry" />
        </mxCell>
        <mxCell id="H3EZGzHOY8zEHbJkH5yz-8" style="edgeStyle=orthogonalEdgeStyle;rounded=0;orthogonalLoop=1;jettySize=auto;html=1;exitX=0.5;exitY=1;exitDx=0;exitDy=0;" edge="1" parent="1" source="H3EZGzHOY8zEHbJkH5yz-7">
          <mxGeometry relative="1" as="geometry">
            <mxPoint x="120" y="480" as="targetPoint" />
          </mxGeometry>
        </mxCell>
        <mxCell id="H3EZGzHOY8zEHbJkH5yz-10" style="edgeStyle=orthogonalEdgeStyle;rounded=0;orthogonalLoop=1;jettySize=auto;html=1;exitX=0.5;exitY=1;exitDx=0;exitDy=0;" edge="1" parent="1" source="H3EZGzHOY8zEHbJkH5yz-7">
          <mxGeometry relative="1" as="geometry">
            <mxPoint x="700" y="480" as="targetPoint" />
            <Array as="points">
              <mxPoint x="405" y="455" />
              <mxPoint x="700" y="455" />
            </Array>
          </mxGeometry>
        </mxCell>
        <mxCell id="H3EZGzHOY8zEHbJkH5yz-7" value="&lt;font style=&quot;font-size: 25px;&quot;&gt;Welcome Page&amp;nbsp;&lt;/font&gt;" style="rounded=1;whiteSpace=wrap;html=1;absoluteArcSize=1;arcSize=14;strokeWidth=2;" vertex="1" parent="1">
          <mxGeometry x="270" y="310" width="270" height="120" as="geometry" />
        </mxCell>
        <mxCell id="H3EZGzHOY8zEHbJkH5yz-106" style="edgeStyle=orthogonalEdgeStyle;rounded=0;orthogonalLoop=1;jettySize=auto;html=1;exitX=0.5;exitY=1;exitDx=0;exitDy=0;entryX=0.5;entryY=0;entryDx=0;entryDy=0;" edge="1" parent="1" source="H3EZGzHOY8zEHbJkH5yz-11" target="H3EZGzHOY8zEHbJkH5yz-104">
          <mxGeometry relative="1" as="geometry" />
        </mxCell>
        <mxCell id="H3EZGzHOY8zEHbJkH5yz-107" style="edgeStyle=orthogonalEdgeStyle;rounded=0;orthogonalLoop=1;jettySize=auto;html=1;exitX=0.5;exitY=1;exitDx=0;exitDy=0;" edge="1" parent="1" source="H3EZGzHOY8zEHbJkH5yz-11" target="H3EZGzHOY8zEHbJkH5yz-105">
          <mxGeometry relative="1" as="geometry" />
        </mxCell>
        <mxCell id="H3EZGzHOY8zEHbJkH5yz-11" value="&lt;font style=&quot;font-size: 25px;&quot;&gt;Login&lt;/font&gt;" style="rounded=1;whiteSpace=wrap;html=1;absoluteArcSize=1;arcSize=14;strokeWidth=2;" vertex="1" parent="1">
          <mxGeometry x="630" y="480" width="190" height="100" as="geometry" />
        </mxCell>
        <mxCell id="H3EZGzHOY8zEHbJkH5yz-13" style="edgeStyle=orthogonalEdgeStyle;rounded=0;orthogonalLoop=1;jettySize=auto;html=1;exitX=0.5;exitY=1;exitDx=0;exitDy=0;" edge="1" parent="1" source="H3EZGzHOY8zEHbJkH5yz-12">
          <mxGeometry relative="1" as="geometry">
            <mxPoint x="20" y="620" as="targetPoint" />
          </mxGeometry>
        </mxCell>
        <mxCell id="H3EZGzHOY8zEHbJkH5yz-14" style="edgeStyle=orthogonalEdgeStyle;rounded=0;orthogonalLoop=1;jettySize=auto;html=1;exitX=0.5;exitY=1;exitDx=0;exitDy=0;" edge="1" parent="1" source="H3EZGzHOY8zEHbJkH5yz-12">
          <mxGeometry relative="1" as="geometry">
            <mxPoint x="165" y="620" as="targetPoint" />
          </mxGeometry>
        </mxCell>
        <mxCell id="H3EZGzHOY8zEHbJkH5yz-15" style="edgeStyle=orthogonalEdgeStyle;rounded=0;orthogonalLoop=1;jettySize=auto;html=1;exitX=0.5;exitY=1;exitDx=0;exitDy=0;" edge="1" parent="1" source="H3EZGzHOY8zEHbJkH5yz-12">
          <mxGeometry relative="1" as="geometry">
            <mxPoint x="290" y="620" as="targetPoint" />
          </mxGeometry>
        </mxCell>
        <mxCell id="H3EZGzHOY8zEHbJkH5yz-12" value="&lt;font style=&quot;font-size: 25px;&quot;&gt;Sign up&lt;/font&gt;" style="rounded=1;whiteSpace=wrap;html=1;absoluteArcSize=1;arcSize=14;strokeWidth=2;" vertex="1" parent="1">
          <mxGeometry x="70" y="480" width="190" height="100" as="geometry" />
        </mxCell>
        <mxCell id="H3EZGzHOY8zEHbJkH5yz-94" style="edgeStyle=orthogonalEdgeStyle;rounded=0;orthogonalLoop=1;jettySize=auto;html=1;exitX=0.75;exitY=1;exitDx=0;exitDy=0;entryX=0.567;entryY=0.01;entryDx=0;entryDy=0;entryPerimeter=0;" edge="1" parent="1" source="H3EZGzHOY8zEHbJkH5yz-16" target="H3EZGzHOY8zEHbJkH5yz-93">
          <mxGeometry relative="1" as="geometry" />
        </mxCell>
        <mxCell id="H3EZGzHOY8zEHbJkH5yz-16" value="&lt;font style=&quot;font-size: 17px;&quot;&gt;Developer&lt;/font&gt;" style="rounded=1;whiteSpace=wrap;html=1;absoluteArcSize=1;arcSize=14;strokeWidth=2;" vertex="1" parent="1">
          <mxGeometry x="-40" y="620" width="100" height="100" as="geometry" />
        </mxCell>
        <mxCell id="H3EZGzHOY8zEHbJkH5yz-100" style="edgeStyle=orthogonalEdgeStyle;rounded=0;orthogonalLoop=1;jettySize=auto;html=1;exitX=0.75;exitY=1;exitDx=0;exitDy=0;entryX=0.641;entryY=0;entryDx=0;entryDy=0;entryPerimeter=0;" edge="1" parent="1" source="H3EZGzHOY8zEHbJkH5yz-17" target="H3EZGzHOY8zEHbJkH5yz-93">
          <mxGeometry relative="1" as="geometry" />
        </mxCell>
        <mxCell id="H3EZGzHOY8zEHbJkH5yz-17" value="&lt;font style=&quot;font-size: 17px;&quot;&gt;Business&lt;/font&gt;" style="rounded=1;whiteSpace=wrap;html=1;absoluteArcSize=1;arcSize=14;strokeWidth=2;" vertex="1" parent="1">
          <mxGeometry x="120" y="620" width="100" height="100" as="geometry" />
        </mxCell>
        <mxCell id="H3EZGzHOY8zEHbJkH5yz-99" style="edgeStyle=orthogonalEdgeStyle;rounded=0;orthogonalLoop=1;jettySize=auto;html=1;exitX=0.75;exitY=1;exitDx=0;exitDy=0;" edge="1" parent="1" source="H3EZGzHOY8zEHbJkH5yz-18" target="H3EZGzHOY8zEHbJkH5yz-93">
          <mxGeometry relative="1" as="geometry">
            <Array as="points">
              <mxPoint x="335" y="755" />
              <mxPoint x="145" y="755" />
            </Array>
          </mxGeometry>
        </mxCell>
        <mxCell id="H3EZGzHOY8zEHbJkH5yz-18" value="&lt;font style=&quot;font-size: 17px;&quot;&gt;Organiser&lt;/font&gt;" style="rounded=1;whiteSpace=wrap;html=1;absoluteArcSize=1;arcSize=14;strokeWidth=2;" vertex="1" parent="1">
          <mxGeometry x="260" y="620" width="100" height="100" as="geometry" />
        </mxCell>
        <mxCell id="H3EZGzHOY8zEHbJkH5yz-92" value="Enter below details" style="text;html=1;align=center;verticalAlign=middle;resizable=0;points=[];autosize=1;strokeColor=none;fillColor=none;" vertex="1" parent="1">
          <mxGeometry x="60" y="730" width="120" height="30" as="geometry" />
        </mxCell>
        <mxCell id="H3EZGzHOY8zEHbJkH5yz-102" style="edgeStyle=orthogonalEdgeStyle;rounded=0;orthogonalLoop=1;jettySize=auto;html=1;exitX=1;exitY=0.5;exitDx=0;exitDy=0;entryX=0;entryY=0.5;entryDx=0;entryDy=0;" edge="1" parent="1" source="H3EZGzHOY8zEHbJkH5yz-93" target="H3EZGzHOY8zEHbJkH5yz-11">
          <mxGeometry relative="1" as="geometry" />
        </mxCell>
        <mxCell id="H3EZGzHOY8zEHbJkH5yz-93" value="&lt;font style=&quot;font-size: 20px;&quot;&gt;Enter First Name, Last Name, Email, Password, Confirm Password&lt;/font&gt;" style="rounded=1;whiteSpace=wrap;html=1;absoluteArcSize=1;arcSize=14;strokeWidth=2;" vertex="1" parent="1">
          <mxGeometry x="-160" y="790" width="610" height="100" as="geometry" />
        </mxCell>
        <mxCell id="H3EZGzHOY8zEHbJkH5yz-103" value="After creating account,&lt;br&gt;login" style="text;html=1;align=center;verticalAlign=middle;resizable=0;points=[];autosize=1;strokeColor=none;fillColor=none;" vertex="1" parent="1">
          <mxGeometry x="400" y="630" width="140" height="40" as="geometry" />
        </mxCell>
        <mxCell id="H3EZGzHOY8zEHbJkH5yz-110" style="edgeStyle=orthogonalEdgeStyle;rounded=0;orthogonalLoop=1;jettySize=auto;html=1;exitX=0.5;exitY=1;exitDx=0;exitDy=0;entryX=0.421;entryY=-0.02;entryDx=0;entryDy=0;entryPerimeter=0;" edge="1" parent="1" source="H3EZGzHOY8zEHbJkH5yz-104" target="H3EZGzHOY8zEHbJkH5yz-109">
          <mxGeometry relative="1" as="geometry" />
        </mxCell>
        <mxCell id="H3EZGzHOY8zEHbJkH5yz-104" value="&lt;font style=&quot;font-size: 18px;&quot;&gt;Email&lt;/font&gt;" style="rounded=1;whiteSpace=wrap;html=1;absoluteArcSize=1;arcSize=14;strokeWidth=2;" vertex="1" parent="1">
          <mxGeometry x="630" y="640" width="100" height="100" as="geometry" />
        </mxCell>
        <mxCell id="H3EZGzHOY8zEHbJkH5yz-111" style="edgeStyle=orthogonalEdgeStyle;rounded=0;orthogonalLoop=1;jettySize=auto;html=1;exitX=0.5;exitY=1;exitDx=0;exitDy=0;entryX=0.342;entryY=0.01;entryDx=0;entryDy=0;entryPerimeter=0;" edge="1" parent="1" source="H3EZGzHOY8zEHbJkH5yz-105" target="H3EZGzHOY8zEHbJkH5yz-109">
          <mxGeometry relative="1" as="geometry">
            <Array as="points">
              <mxPoint x="930" y="770" />
              <mxPoint x="830" y="770" />
              <mxPoint x="830" y="801" />
            </Array>
          </mxGeometry>
        </mxCell>
        <mxCell id="H3EZGzHOY8zEHbJkH5yz-105" value="&lt;font style=&quot;font-size: 18px;&quot;&gt;Password&lt;/font&gt;" style="rounded=1;whiteSpace=wrap;html=1;absoluteArcSize=1;arcSize=14;strokeWidth=2;" vertex="1" parent="1">
          <mxGeometry x="880" y="640" width="100" height="100" as="geometry" />
        </mxCell>
        <mxCell id="H3EZGzHOY8zEHbJkH5yz-108" value="Enter below details" style="text;html=1;align=center;verticalAlign=middle;resizable=0;points=[];autosize=1;strokeColor=none;fillColor=none;" vertex="1" parent="1">
          <mxGeometry x="810" y="585" width="120" height="30" as="geometry" />
        </mxCell>
        <mxCell id="H3EZGzHOY8zEHbJkH5yz-114" style="edgeStyle=orthogonalEdgeStyle;rounded=0;orthogonalLoop=1;jettySize=auto;html=1;exitX=0.5;exitY=1;exitDx=0;exitDy=0;" edge="1" parent="1" source="H3EZGzHOY8zEHbJkH5yz-109">
          <mxGeometry relative="1" as="geometry">
            <mxPoint x="870" y="990" as="targetPoint" />
          </mxGeometry>
        </mxCell>
        <mxCell id="H3EZGzHOY8zEHbJkH5yz-109" value="&lt;font style=&quot;font-size: 23px;&quot;&gt;Dashboard (Details of users)&lt;/font&gt;" style="rounded=1;whiteSpace=wrap;html=1;absoluteArcSize=1;arcSize=14;strokeWidth=2;" vertex="1" parent="1">
          <mxGeometry x="610" y="800" width="520" height="100" as="geometry" />
        </mxCell>
        <mxCell id="H3EZGzHOY8zEHbJkH5yz-112" value="After entering the details" style="text;html=1;align=center;verticalAlign=middle;resizable=0;points=[];autosize=1;strokeColor=none;fillColor=none;" vertex="1" parent="1">
          <mxGeometry x="840" y="770" width="150" height="30" as="geometry" />
        </mxCell>
        <mxCell id="H3EZGzHOY8zEHbJkH5yz-116" style="edgeStyle=orthogonalEdgeStyle;rounded=0;orthogonalLoop=1;jettySize=auto;html=1;exitX=0.5;exitY=1;exitDx=0;exitDy=0;" edge="1" parent="1" source="H3EZGzHOY8zEHbJkH5yz-115">
          <mxGeometry relative="1" as="geometry">
            <mxPoint x="880" y="1140" as="targetPoint" />
          </mxGeometry>
        </mxCell>
        <mxCell id="H3EZGzHOY8zEHbJkH5yz-115" value="&lt;font style=&quot;font-size: 23px;&quot;&gt;Edit Profile/ Fill Profile&lt;/font&gt;" style="rounded=1;whiteSpace=wrap;html=1;absoluteArcSize=1;arcSize=14;strokeWidth=2;" vertex="1" parent="1">
          <mxGeometry x="670" y="990" width="420" height="100" as="geometry" />
        </mxCell>
        <mxCell id="H3EZGzHOY8zEHbJkH5yz-118" style="edgeStyle=orthogonalEdgeStyle;rounded=0;orthogonalLoop=1;jettySize=auto;html=1;exitX=0.5;exitY=1;exitDx=0;exitDy=0;" edge="1" parent="1" source="H3EZGzHOY8zEHbJkH5yz-117">
          <mxGeometry relative="1" as="geometry">
            <mxPoint x="760" y="1290" as="targetPoint" />
          </mxGeometry>
        </mxCell>
        <mxCell id="H3EZGzHOY8zEHbJkH5yz-119" style="edgeStyle=orthogonalEdgeStyle;rounded=0;orthogonalLoop=1;jettySize=auto;html=1;exitX=0.5;exitY=1;exitDx=0;exitDy=0;" edge="1" parent="1" source="H3EZGzHOY8zEHbJkH5yz-117">
          <mxGeometry relative="1" as="geometry">
            <mxPoint x="1040" y="1290" as="targetPoint" />
          </mxGeometry>
        </mxCell>
        <mxCell id="H3EZGzHOY8zEHbJkH5yz-128" style="edgeStyle=orthogonalEdgeStyle;rounded=0;orthogonalLoop=1;jettySize=auto;html=1;exitX=0.5;exitY=1;exitDx=0;exitDy=0;" edge="1" parent="1" source="H3EZGzHOY8zEHbJkH5yz-117">
          <mxGeometry relative="1" as="geometry">
            <mxPoint x="1220" y="1290" as="targetPoint" />
          </mxGeometry>
        </mxCell>
        <mxCell id="H3EZGzHOY8zEHbJkH5yz-117" value="&lt;font style=&quot;font-size: 20px;&quot;&gt;Fill Details, skills,Education,Experience,Project&lt;/font&gt;" style="rounded=1;whiteSpace=wrap;html=1;absoluteArcSize=1;arcSize=14;strokeWidth=2;" vertex="1" parent="1">
          <mxGeometry x="670" y="1140" width="430" height="100" as="geometry" />
        </mxCell>
        <mxCell id="H3EZGzHOY8zEHbJkH5yz-124" style="edgeStyle=orthogonalEdgeStyle;rounded=0;orthogonalLoop=1;jettySize=auto;html=1;exitX=0.5;exitY=1;exitDx=0;exitDy=0;" edge="1" parent="1" source="H3EZGzHOY8zEHbJkH5yz-120">
          <mxGeometry relative="1" as="geometry">
            <mxPoint x="705" y="1440" as="targetPoint" />
          </mxGeometry>
        </mxCell>
        <mxCell id="H3EZGzHOY8zEHbJkH5yz-120" value="&lt;font style=&quot;font-size: 18px;&quot;&gt;Edit Resume&lt;/font&gt;" style="rounded=1;whiteSpace=wrap;html=1;absoluteArcSize=1;arcSize=14;strokeWidth=2;" vertex="1" parent="1">
          <mxGeometry x="600" y="1290" width="210" height="100" as="geometry" />
        </mxCell>
        <mxCell id="H3EZGzHOY8zEHbJkH5yz-121" value="&lt;font style=&quot;font-size: 16px;&quot;&gt;Create New Project&amp;nbsp;&lt;/font&gt;" style="rounded=1;whiteSpace=wrap;html=1;absoluteArcSize=1;arcSize=14;strokeWidth=2;" vertex="1" parent="1">
          <mxGeometry x="910" y="1640" width="220" height="100" as="geometry" />
        </mxCell>
        <mxCell id="H3EZGzHOY8zEHbJkH5yz-133" style="edgeStyle=orthogonalEdgeStyle;rounded=0;orthogonalLoop=1;jettySize=auto;html=1;exitX=0.5;exitY=1;exitDx=0;exitDy=0;" edge="1" parent="1" source="H3EZGzHOY8zEHbJkH5yz-123" target="H3EZGzHOY8zEHbJkH5yz-121">
          <mxGeometry relative="1" as="geometry" />
        </mxCell>
        <mxCell id="H3EZGzHOY8zEHbJkH5yz-123" value="&lt;font style=&quot;font-size: 20px;&quot;&gt;Choose Playground&lt;br&gt;(Choose any language&lt;br&gt;to create project)&lt;br&gt;&lt;/font&gt;" style="rounded=1;whiteSpace=wrap;html=1;absoluteArcSize=1;arcSize=14;strokeWidth=2;" vertex="1" parent="1">
          <mxGeometry x="900" y="1450" width="240" height="100" as="geometry" />
        </mxCell>
        <mxCell id="H3EZGzHOY8zEHbJkH5yz-125" value="&lt;font style=&quot;font-size: 16px;&quot;&gt;Enter OTP for authentication&lt;/font&gt;" style="rounded=1;whiteSpace=wrap;html=1;absoluteArcSize=1;arcSize=14;strokeWidth=2;" vertex="1" parent="1">
          <mxGeometry x="590" y="1440" width="230" height="100" as="geometry" />
        </mxCell>
        <mxCell id="H3EZGzHOY8zEHbJkH5yz-131" style="edgeStyle=orthogonalEdgeStyle;rounded=0;orthogonalLoop=1;jettySize=auto;html=1;exitX=0.5;exitY=1;exitDx=0;exitDy=0;" edge="1" parent="1" source="H3EZGzHOY8zEHbJkH5yz-126">
          <mxGeometry relative="1" as="geometry">
            <mxPoint x="1005" y="1450" as="targetPoint" />
          </mxGeometry>
        </mxCell>
        <mxCell id="H3EZGzHOY8zEHbJkH5yz-140" style="edgeStyle=orthogonalEdgeStyle;rounded=0;orthogonalLoop=1;jettySize=auto;html=1;exitX=1;exitY=0.5;exitDx=0;exitDy=0;entryX=0;entryY=0.5;entryDx=0;entryDy=0;" edge="1" parent="1" source="H3EZGzHOY8zEHbJkH5yz-126" target="H3EZGzHOY8zEHbJkH5yz-129">
          <mxGeometry relative="1" as="geometry" />
        </mxCell>
        <mxCell id="H3EZGzHOY8zEHbJkH5yz-145" style="edgeStyle=orthogonalEdgeStyle;rounded=0;orthogonalLoop=1;jettySize=auto;html=1;exitX=0;exitY=0.5;exitDx=0;exitDy=0;entryX=0.545;entryY=1.01;entryDx=0;entryDy=0;entryPerimeter=0;" edge="1" parent="1" source="H3EZGzHOY8zEHbJkH5yz-126" target="H3EZGzHOY8zEHbJkH5yz-139">
          <mxGeometry relative="1" as="geometry">
            <mxPoint x="1790" y="1740" as="targetPoint" />
            <Array as="points">
              <mxPoint x="880" y="1340" />
              <mxPoint x="880" y="1810" />
              <mxPoint x="1779" y="1810" />
            </Array>
          </mxGeometry>
        </mxCell>
        <mxCell id="H3EZGzHOY8zEHbJkH5yz-146" value="Participate in hackathons" style="edgeLabel;html=1;align=center;verticalAlign=middle;resizable=0;points=[];" vertex="1" connectable="0" parent="H3EZGzHOY8zEHbJkH5yz-145">
          <mxGeometry x="0.2172" y="-1" relative="1" as="geometry">
            <mxPoint x="-13" y="-11" as="offset" />
          </mxGeometry>
        </mxCell>
        <mxCell id="H3EZGzHOY8zEHbJkH5yz-126" value="&lt;font style=&quot;font-size: 20px;&quot;&gt;Developer&lt;/font&gt;" style="rounded=1;whiteSpace=wrap;html=1;absoluteArcSize=1;arcSize=14;strokeWidth=2;" vertex="1" parent="1">
          <mxGeometry x="920" y="1290" width="170" height="100" as="geometry" />
        </mxCell>
        <mxCell id="H3EZGzHOY8zEHbJkH5yz-134" style="edgeStyle=orthogonalEdgeStyle;rounded=0;orthogonalLoop=1;jettySize=auto;html=1;exitX=0.5;exitY=1;exitDx=0;exitDy=0;" edge="1" parent="1" source="H3EZGzHOY8zEHbJkH5yz-129">
          <mxGeometry relative="1" as="geometry">
            <mxPoint x="1540" y="1470" as="targetPoint" />
          </mxGeometry>
        </mxCell>
        <mxCell id="H3EZGzHOY8zEHbJkH5yz-135" style="edgeStyle=orthogonalEdgeStyle;rounded=0;orthogonalLoop=1;jettySize=auto;html=1;exitX=0.5;exitY=1;exitDx=0;exitDy=0;entryX=0.75;entryY=1;entryDx=0;entryDy=0;" edge="1" parent="1" source="H3EZGzHOY8zEHbJkH5yz-129" target="H3EZGzHOY8zEHbJkH5yz-121">
          <mxGeometry relative="1" as="geometry" />
        </mxCell>
        <mxCell id="H3EZGzHOY8zEHbJkH5yz-136" style="edgeStyle=orthogonalEdgeStyle;rounded=0;orthogonalLoop=1;jettySize=auto;html=1;exitX=0.5;exitY=1;exitDx=0;exitDy=0;" edge="1" parent="1" source="H3EZGzHOY8zEHbJkH5yz-129">
          <mxGeometry relative="1" as="geometry">
            <mxPoint x="1690" y="1470" as="targetPoint" />
          </mxGeometry>
        </mxCell>
        <mxCell id="H3EZGzHOY8zEHbJkH5yz-129" value="&lt;font style=&quot;font-size: 19px;&quot;&gt;Business/Organiser&lt;/font&gt;" style="rounded=1;whiteSpace=wrap;html=1;absoluteArcSize=1;arcSize=14;strokeWidth=2;" vertex="1" parent="1">
          <mxGeometry x="1190" y="1290" width="250" height="100" as="geometry" />
        </mxCell>
        <mxCell id="H3EZGzHOY8zEHbJkH5yz-137" value="View the projects of&amp;nbsp;&lt;br&gt;potential employees" style="text;html=1;align=center;verticalAlign=middle;resizable=0;points=[];autosize=1;strokeColor=none;fillColor=none;" vertex="1" parent="1">
          <mxGeometry x="1190" y="1530" width="130" height="40" as="geometry" />
        </mxCell>
        <mxCell id="H3EZGzHOY8zEHbJkH5yz-138" value="&lt;font style=&quot;font-size: 17px;&quot;&gt;Conduct Proctored interview&lt;/font&gt;" style="rounded=1;whiteSpace=wrap;html=1;absoluteArcSize=1;arcSize=14;strokeWidth=2;" vertex="1" parent="1">
          <mxGeometry x="1410" y="1470" width="210" height="100" as="geometry" />
        </mxCell>
        <mxCell id="H3EZGzHOY8zEHbJkH5yz-139" value="&lt;font style=&quot;font-size: 18px;&quot;&gt;Conduct hackathons&lt;/font&gt;" style="rounded=1;whiteSpace=wrap;html=1;absoluteArcSize=1;arcSize=14;strokeWidth=2;" vertex="1" parent="1">
          <mxGeometry x="1670" y="1470" width="200" height="100" as="geometry" />
        </mxCell>
        <mxCell id="H3EZGzHOY8zEHbJkH5yz-141" value="Apply for jobs" style="text;html=1;align=center;verticalAlign=middle;resizable=0;points=[];autosize=1;strokeColor=none;fillColor=none;" vertex="1" parent="1">
          <mxGeometry x="1090" y="1315" width="100" height="30" as="geometry" />
        </mxCell>
        <mxCell id="H3EZGzHOY8zEHbJkH5yz-144" style="edgeStyle=orthogonalEdgeStyle;rounded=0;orthogonalLoop=1;jettySize=auto;html=1;exitX=0.5;exitY=1;exitDx=0;exitDy=0;" edge="1" parent="1" source="H3EZGzHOY8zEHbJkH5yz-126" target="H3EZGzHOY8zEHbJkH5yz-126">
          <mxGeometry relative="1" as="geometry" />
        </mxCell>
      </root>
    </mxGraphModel>
  </diagram>
</mxfile>
